<svg xmlns="http://www.w3.org/2000/svg" version="1.2" viewBox="0 0 512 512">
   <path fill="#00a17b" d="m360.2 326.1h-36.2v-127.9h-36.8v-36.2h73v164.1zm-63.6 183.6c-37.5 0-63.7-19.4-63.7-47.2v-161.9h36.2v161.9c0 5.2 11.7 11 27.5 11c15.7 0 27.4-5.8 27.4-11v-64h36.2v64c0 27.8-26.2 47.2-63.6 47.2zm-27.5-281.5h-36.2v-166.5c0-24.3-25.1-25.5-30.2-25.5c-11.7 0-31.6 5.3-31.6 25.5v82.1h-36.1v-82.1c0-18.9 8-35.5 22.5-46.9c12.3-9.5 28.3-14.8 45.3-14.8c17 0 32.6 5.2 44.5 14.8c14.1 11.2 21.8 27.9 21.8 46.9zm184.7 152.2h-166.6v-36.2h166.6c9.1 0 22.1-10.3 22.1-33.2c0-8.5-2.2-16.2-6.1-21.3c-3.9-5.1-8.9-7.3-16-7.3h-75.5v-36.2h75.5c18.3 0 34.2 7.7 44.8 21.6c8.7 11.5 13.4 26.8 13.4 43.2c0 16.8-4.8 33-13.7 45.5c-10.8 15.4-26.6 23.9-44.5 23.9zm-264.5-134.1h116.6v36.1h-116.6zm-72.4 36.2h-66.3c-29.3 0-50.5-25.3-50.5-60.2c0-14.7 4-28.6 11.3-39.2c9.3-13.6 23.2-21 39.2-21h164.3v36.1h-164.3c-5 0-14.4 5.1-14.4 24.1c0 8.3 3 24 14.4 24h66.3zm208.5-156.7c-16 0-28.9-12.9-28.9-28.9c0-15.9 12.9-28.8 28.9-28.8c15.9 0 28.8 12.9 28.8 28.8c0 16-12.9 28.9-28.8 28.9zm-110.5 218.5v36.2h-56.2l-59.7 61l-25.9-25.3l61.9-63.3v-136.7h36.2v128.1h43.7z" />
</svg>
